<svg width="86" height="54" viewBox="0 0 86 54" fill="none" xmlns="http://www.w3.org/2000/svg">
<g clip-path="url(#clip0_1_457)">
<path d="M70.8645 31.2237L78.3303 8.76765L85.9681 31.2237H84.6935L78.3303 12.3261L72.0531 31.2237H70.8645Z" fill="#FF0000"/>
<path d="M69.3945 31.4884H68.2775C68.2488 30.0471 67.9194 28.62 67.2894 27.1976C66.6545 25.7752 65.7618 24.6789 64.6114 23.9038C64.2773 23.9842 63.924 24.0693 63.5517 24.159C63.1793 24.244 62.826 24.3055 62.4918 24.3433V31.4884H61.3462L61.3605 9.06076C63.5421 9.06076 65.4324 9.80737 67.0316 11.296C68.6259 12.7845 69.4231 14.5802 69.4231 16.6831C69.4231 18.1528 69.0651 19.4712 68.3443 20.6432C67.6282 21.8104 66.6783 22.7319 65.504 23.3935C66.6783 24.2725 67.6282 25.4586 68.3538 26.9566C69.0746 28.4546 69.4231 29.962 69.3945 31.4884Z" fill="#FF0000"/>
<path d="M43.4117 31.2237L50.8775 8.76765L58.5152 31.2237H57.2407L50.8775 12.3261L44.6003 31.2237H43.4117Z" fill="#FF0000"/>
<path d="M50.8775 27.3879C52.2311 27.3879 52.9078 28.0579 52.9078 29.3978C52.9078 30.7379 52.2311 31.4078 50.8775 31.4078C49.5239 31.4078 48.8471 30.7379 48.8471 29.3978C48.8471 28.0579 49.5239 27.3879 50.8775 27.3879Z" fill="#FF0000"/>
<path d="M32.0975 31.2779V8.85032C35.2386 8.85032 37.9213 9.94663 40.1506 12.1345C42.3798 14.3272 43.4968 16.9641 43.4968 20.0452C43.4968 23.1263 42.3798 25.7632 40.1506 27.9653C37.9213 30.1627 35.2386 31.2685 32.0975 31.2779ZM33.2146 30.0729C35.7827 29.8508 37.9451 28.778 39.7066 26.85C41.468 24.9173 42.3512 22.6537 42.3512 20.0498C42.3512 17.4461 41.468 15.192 39.7066 13.2876C37.9451 11.3831 35.7827 10.3152 33.2146 10.0977V30.0728V30.0729Z" fill="#FF0000"/>
<path d="M78.7022 27.3621C80.0558 27.3621 80.7326 28.0321 80.7326 29.372C80.7326 30.712 80.0558 31.382 78.7022 31.382C77.3486 31.382 76.6718 30.712 76.6718 29.372C76.6718 28.0321 77.3486 27.3621 78.7022 27.3621Z" fill="#FF0000"/>
<path fill-rule="evenodd" clip-rule="evenodd" d="M24.0571 12.2864C24.8599 13.7094 25.3621 15.2514 25.6891 16.8532C25.7502 17.1522 25.7786 17.4309 25.8317 17.7322C25.8884 18.0535 25.9542 18.7826 25.9521 19.1586C25.9501 19.52 26.0221 19.7962 25.9746 20.1396C25.9536 20.2914 25.9512 20.446 25.952 20.6427C25.9584 22.2364 25.4201 24.4512 24.8769 25.7918C24.3739 27.0328 23.8044 28.0716 23.03 29.095L22.4454 29.8145C22.2053 30.0987 21.7224 30.4947 21.549 30.751C22.2866 30.751 22.8685 30.6369 23.4051 30.4245C24.3637 30.0451 25.2405 29.2561 25.7022 28.3399C26.2786 27.1962 26.3645 25.6809 25.7647 24.5066C25.7052 24.3899 25.5752 24.1672 25.546 24.043C25.8384 24.0671 26.4676 24.4106 26.6833 24.5555C27.0101 24.7752 27.303 25.0357 27.5494 25.3365C28.8572 26.9328 28.7111 29.2604 27.256 30.7127C27.166 30.8024 27.0852 30.8601 26.9895 30.9435C26.0116 31.7949 24.5742 32.0344 23.3287 31.7097C23.0015 31.6244 22.7158 31.4747 22.3923 31.4002C22.603 31.7117 22.9231 31.9524 23.1633 32.2444C24.5818 33.9688 24.2094 36.5414 22.4594 37.8964C21.7906 38.4142 20.8883 38.7264 20.0191 38.7264C19.6635 38.7264 18.9366 38.6188 18.7076 38.5101C18.6153 38.9023 18.1264 39.4948 17.8259 39.7702C17.7148 39.872 17.5489 40.0462 17.3961 40.0866C17.4013 40.3185 17.5853 40.9149 17.6381 41.1763C18.2256 44.083 18.1656 47.4953 17.4208 50.374C17.2695 50.9591 17.0528 51.5102 16.8123 52.0591C16.6276 52.4807 16.1998 53.1184 15.7939 53.3384C15.4354 53.5328 15.1104 53.5479 14.7542 53.3358C14.3613 53.1018 14.0299 52.6138 13.8255 52.2151C12.3814 49.3985 12.2318 44.5573 12.8865 41.3411C12.9311 41.1219 12.9761 40.9167 13.0167 40.7281C13.0555 40.5469 13.1457 40.2817 13.1494 40.1176C12.6806 39.8068 11.9403 39.0469 11.8066 38.4792C11.3891 38.5754 11.0291 38.7265 10.5576 38.7265C9.79879 38.7265 9.2327 38.6682 8.58989 38.3561C7.35097 37.7543 6.31086 36.4319 6.31086 34.9861C6.31086 34.0534 6.3966 33.4933 6.84269 32.7305C7.22974 32.0687 7.67088 31.806 7.90342 31.4621C7.12012 31.6428 6.8913 31.8021 5.93621 31.8021C4.8734 31.8021 4.01814 31.3118 3.27399 30.6663C2.97242 30.4048 2.66719 29.903 2.4909 29.5558C2.00017 28.5893 1.96337 27.2912 2.38937 26.2816C2.55686 25.8848 2.76441 25.5776 3.01398 25.2617C3.38067 24.7974 4.40767 24.0326 5.03071 23.9813C4.84645 24.2536 4.6757 24.6498 4.55813 24.9973C4.21643 26.0066 4.32885 27.2285 4.75994 28.1443C5.23918 29.1626 6.08282 29.9502 7.12691 30.3761C7.82532 30.661 8.37848 30.6616 9.09014 30.7202C9.0579 30.6007 8.96199 30.5467 8.87932 30.4651C8.60705 30.1963 8.33699 29.9303 8.09525 29.6339C6.58692 27.7851 5.61624 25.886 5.10066 23.4792C4.85265 22.3213 4.71837 21.0142 4.71837 19.6844C4.71837 19.3358 4.71413 19.0253 4.75419 18.6688C4.78564 18.3889 4.88234 18.0092 4.88234 17.7099C5.21536 16.4353 5.29405 14.9807 6.11284 13.3059C6.51783 12.4773 6.91466 11.7723 7.44095 11.0039C9.53225 7.93933 17.4918 2.43224 24.0574 12.2865L24.0571 12.2864ZM16.3655 33.1622C16.531 33.3859 18.1682 33.6438 18.8757 35.7468C19.0444 36.2481 19.0509 36.6233 19.0509 37.2735C19.7068 36.93 19.9904 36.7989 20.5426 36.2463C21.5591 35.2291 22.0309 33.5357 21.5986 32.0311C21.4732 31.5943 21.2307 31.1672 21.2055 31.0602C21.0716 31.0712 20.887 31.2742 20.7057 31.4001C20.2256 31.7334 19.6078 32.1493 19.0641 32.3715C18.8471 32.4603 18.6757 32.5542 18.454 32.6332C17.9511 32.8122 16.87 33.1511 16.3655 33.1623V33.1622ZM8.55896 33.224C8.55896 33.9166 8.78543 34.8233 9.11473 35.3631C9.22709 35.5474 9.354 35.7597 9.48821 35.9208C9.7154 36.1935 9.89039 36.3888 10.1605 36.6154C10.3947 36.8117 10.7204 37.015 10.9945 37.1499C11.9397 37.6153 11.0941 37.419 11.7085 35.5692C12.0267 34.6112 12.7639 33.878 13.6488 33.4404C13.7412 33.3947 13.818 33.3566 13.9192 33.3062C13.9798 33.2761 14.0027 33.2653 14.0688 33.2378L14.2109 33.1621C13.7029 33.045 13.2253 32.9688 12.747 32.8184C12.3025 32.6787 11.8585 32.4923 11.463 32.2966C10.9014 32.0185 10.0186 31.4793 9.53506 31.0522C9.46152 30.9873 9.3506 30.8924 9.2772 30.8437C8.86621 31.6126 8.55902 32.2392 8.55902 33.2239L8.55896 33.224ZM15.4599 32.1421C16.2879 32.1421 17.1788 31.9922 17.814 31.7831C18.1549 31.6708 18.4807 31.564 18.7908 31.421C18.9552 31.3451 19.085 31.2744 19.2488 31.1942L20.0876 30.6954C20.5738 30.3751 21.1519 29.8908 21.5725 29.4759L21.9001 29.1202C21.9782 29.0447 21.9927 29.0284 22.0618 28.9403L22.5261 28.3797C22.7166 28.1269 22.9179 27.8612 23.0777 27.5965C23.1657 27.4506 23.2515 27.3297 23.3386 27.1747C24.1679 25.6991 24.6476 24.4118 24.9659 22.7269C25.4033 20.412 25.23 17.5473 24.4259 15.3527C23.8578 13.8024 23.0498 12.2643 21.9626 11.1143C21.4545 10.5767 21.1837 10.2792 20.5814 9.82308C19.7398 9.18569 18.978 8.76358 17.962 8.42835C15.6405 7.66262 13.2243 8.01988 11.1758 9.29181C11.0423 9.37469 10.9113 9.46008 10.7848 9.5538C10.6413 9.66038 10.5314 9.73207 10.3915 9.84453L9.65942 10.48C9.28907 10.8028 8.99559 11.1699 8.66577 11.5366C7.72621 12.7128 7.04966 13.9527 6.53323 15.4843C6.30421 16.1633 6.12817 16.8707 5.99839 17.6442C5.90157 18.2215 5.80996 18.9191 5.81107 19.4989L5.7804 20.1453C5.81322 20.5444 5.80096 21.0304 5.8508 21.407C5.90352 21.805 5.94385 22.2038 6.01177 22.6078C6.36234 24.6942 7.20377 26.7022 8.42487 28.3181C8.61174 28.5653 8.83143 28.8083 9.032 29.0463C9.5316 29.6642 10.5408 30.4942 11.2426 30.9073C12.4851 31.6388 13.8893 32.1421 15.46 32.1421H15.4599Z" fill="#FF0000"/>
<path fill-rule="evenodd" clip-rule="evenodd" d="M25.7646 13.3497C26.0747 13.3497 26.3897 13.4303 26.6173 13.5257C27.3283 13.8242 27.9504 14.5865 27.9504 15.359C27.9504 15.8275 27.9588 16.0756 27.7432 16.514C27.633 16.7378 27.4854 16.9168 27.3181 17.0824C26.9732 17.4238 26.492 17.7083 25.9519 17.7083C26.1787 17.3732 26.4242 17.2498 26.5949 16.4902C26.8344 15.4239 26.4115 14.5231 25.6472 13.8987C25.5218 13.7964 25.1356 13.5503 24.9527 13.5352C25.0546 13.3976 25.5821 13.3497 25.7646 13.3497H25.7646Z" fill="#FF0000"/>
<path fill-rule="evenodd" clip-rule="evenodd" d="M4.78062 17.832C4.58637 17.816 4.04815 17.6176 3.8958 17.5333C3.64336 17.3936 3.40742 17.1994 3.22806 16.9887C3.06683 16.7995 2.88949 16.4765 2.81883 16.2191C2.72781 15.8872 2.70778 15.5124 2.77844 15.1699C2.91415 14.5126 3.26727 14.0683 3.75584 13.7572C4.13323 13.5169 4.69214 13.3527 5.20081 13.4283C5.31375 13.4451 5.37861 13.449 5.46858 13.4723C5.56671 13.4977 5.60704 13.5261 5.71744 13.5352V13.5971C5.50323 13.6464 5.34409 13.76 5.17993 13.8688C4.98503 13.9979 4.88625 14.0925 4.72529 14.2533C4.46893 14.5094 4.23789 14.9476 4.13101 15.3343C3.93234 16.0533 4.05598 16.7273 4.42698 17.3475C4.54024 17.5368 4.66337 17.6587 4.78062 17.832Z" fill="#FF0000"/>
<path fill-rule="evenodd" clip-rule="evenodd" d="M2.90708 20.9851C2.90708 21.7719 3.24186 22.6311 3.68071 23.125C3.77937 23.2361 3.8482 23.3368 3.96115 23.4346C4.02822 23.4928 4.04923 23.4962 4.11696 23.5585C4.24191 23.6736 4.49631 23.8796 4.65577 23.9217C4.61219 23.9806 4.66008 23.991 4.34134 24.0123C4.21646 24.0207 4.03142 24.0468 3.94712 24.0379C3.14373 23.9536 2.73143 23.856 2.07668 23.3526C1.19401 22.6739 0.786932 21.4135 1.06365 20.3348C1.31857 19.3413 2.04164 18.5589 3.01956 18.2215C3.51414 18.0508 3.89107 18.0792 4.53082 18.0792C4.49774 18.1696 4.35739 18.232 4.2282 18.336C3.44602 18.9666 2.90701 19.9006 2.90701 20.9849L2.90708 20.9851Z" fill="#FF0000"/>
<path fill-rule="evenodd" clip-rule="evenodd" d="M25.9207 18.203L26.6389 18.1721C28.0809 18.1721 29.4492 19.5597 29.4492 20.9851V21.2633C29.4492 22.2009 28.8858 23.0349 28.3524 23.4541C28.1913 23.5807 28.0569 23.6719 27.867 23.7773C27.7699 23.8313 27.6916 23.8547 27.5865 23.9015C27.141 24.0999 26.1679 24.2221 25.7958 24.0454C25.8491 23.9735 26.0301 23.8881 26.1264 23.8162C26.8941 23.2427 27.5133 22.278 27.5133 21.2942C27.5133 20.467 27.4272 19.9728 26.9886 19.2789C26.7495 18.9004 26.434 18.5957 26.0771 18.3265L25.9208 18.203H25.9207Z" fill="#FF0000"/>
<path d="M11.1859 6.08638L15.4531 -0.000267029L19.8184 6.08638H19.09L15.4531 0.964213L11.8653 6.08638H11.1859Z" fill="#FF0000"/>
<path d="M15.5618 4.75916C16.2391 4.75916 16.5778 5.09413 16.5778 5.76414C16.5778 6.43409 16.2391 6.76906 15.5618 6.76906C14.8846 6.76906 14.5459 6.43409 14.5459 5.76414C14.5459 5.09413 14.8846 4.75916 15.5618 4.75916Z" fill="#FF0000"/>
<path d="M70.8741 31.2528L78.34 8.79672L85.9778 31.2528H84.7031L78.34 12.3551L72.0628 31.2528H70.8741Z" fill="url(#paint0_linear_1_457)"/>
<path d="M69.4043 31.5176H68.2873C68.2586 30.0763 67.9292 28.6491 67.2992 27.2268C66.6643 25.8043 65.7716 24.708 64.6212 23.933C64.2871 24.0133 63.9338 24.0984 63.5615 24.1881C63.1891 24.2732 62.8358 24.3347 62.5016 24.3725V31.5176H61.356L61.3703 9.0899C63.5519 9.0899 65.4422 9.83651 67.0414 11.3252C68.6357 12.8137 69.4329 14.6094 69.4329 16.7123C69.4329 18.1819 69.0749 19.5004 68.3541 20.6723C67.638 21.8396 66.6881 22.7611 65.5138 23.4226C66.6881 24.3016 67.638 25.4877 68.3636 26.9857C69.0844 28.4837 69.4329 29.9911 69.4043 31.5176Z" fill="url(#paint1_linear_1_457)"/>
<path d="M43.4214 31.2528L50.8872 8.79672L58.525 31.2528H57.2504L50.8872 12.3551L44.61 31.2528H43.4214Z" fill="url(#paint2_linear_1_457)"/>
<path d="M50.8872 27.417C52.2409 27.417 52.9176 28.0871 52.9176 29.427C52.9176 30.767 52.2409 31.437 50.8872 31.437C49.5337 31.437 48.8569 30.767 48.8569 29.427C48.8569 28.0871 49.5337 27.417 50.8872 27.417Z" fill="url(#paint3_linear_1_457)"/>
<path d="M32.1072 31.307V8.87939C35.2483 8.87939 37.931 9.97571 40.1603 12.1636C42.3895 14.3563 43.5065 16.9932 43.5065 20.0743C43.5065 23.1554 42.3895 25.7922 40.1603 27.9944C37.931 30.1918 35.2483 31.2976 32.1072 31.307ZM33.2243 30.102C35.7924 29.8799 37.9548 28.8071 39.7163 26.8791C41.4777 24.9464 42.3609 22.6827 42.3609 20.0789C42.3609 17.4752 41.4777 15.2211 39.7163 13.3166C37.9548 11.4122 35.7924 10.3443 33.2243 10.1268V30.102Z" fill="url(#paint4_linear_1_457)"/>
<path d="M78.7119 27.3911C80.0655 27.3911 80.7423 28.0612 80.7423 29.4011C80.7423 30.7411 80.0655 31.4111 78.7119 31.4111C77.3583 31.4111 76.6815 30.7411 76.6815 29.4011C76.6815 28.0612 77.3583 27.3911 78.7119 27.3911Z" fill="url(#paint5_linear_1_457)"/>
<path fill-rule="evenodd" clip-rule="evenodd" d="M24.0668 12.3155C24.8696 13.7385 25.3718 15.2805 25.6989 16.8823C25.7599 17.1812 25.7884 17.46 25.8415 17.7613C25.8982 18.0825 25.9639 18.8116 25.9619 19.1877C25.9598 19.5491 26.0319 19.8253 25.9844 20.1686C25.9634 20.3204 25.9609 20.4751 25.9617 20.6717C25.9681 22.2654 25.4298 24.4803 24.8867 25.8209C24.3837 27.0619 23.8141 28.1006 23.0398 29.124L22.4551 29.8435C22.215 30.1277 21.7321 30.5238 21.5588 30.7801C22.2963 30.7801 22.8783 30.6659 23.4149 30.4536C24.3735 30.0741 25.2502 29.2851 25.7119 28.3689C26.2883 27.2252 26.3743 25.71 25.7745 24.5356C25.7149 24.419 25.5849 24.1962 25.5558 24.072C25.8481 24.0961 26.4774 24.4396 26.6931 24.5846C27.0198 24.8043 27.3127 25.0648 27.5592 25.3655C28.8669 26.9618 28.7208 29.2894 27.2658 30.7417C27.1758 30.8314 27.0949 30.8892 26.9992 30.9725C26.0213 31.8239 24.5839 32.0634 23.3384 31.7387C23.0112 31.6534 22.7255 31.5038 22.402 31.4292C22.6127 31.7407 22.9328 31.9815 23.173 32.2734C24.5915 33.9978 24.2192 36.5705 22.4691 37.9255C21.8004 38.4432 20.898 38.7555 20.0289 38.7555C19.6732 38.7555 18.9463 38.6478 18.7173 38.5391C18.6251 38.9313 18.1362 39.5238 17.8356 39.7992C17.7245 39.901 17.5586 40.0752 17.4059 40.1156C17.4111 40.3475 17.5951 40.9439 17.6479 41.2053C18.2353 44.112 18.1753 47.5243 17.4305 50.403C17.2792 50.9881 17.0625 51.5392 16.822 52.0881C16.6374 52.5097 16.2095 53.1474 15.8036 53.3674C15.4451 53.5618 15.1201 53.5769 14.7639 53.3648C14.3711 53.1308 14.0396 52.6428 13.8352 52.244C12.3911 49.4275 12.2415 44.5863 12.8962 41.3701C12.9409 41.1509 12.9859 40.9458 13.0264 40.7571C13.0653 40.5759 13.1554 40.3108 13.1591 40.1466C12.6903 39.8358 11.95 39.076 11.8164 38.5082C11.3989 38.6044 11.0388 38.7555 10.5673 38.7555C9.80852 38.7555 9.24244 38.6973 8.59962 38.3851C7.36071 37.7833 6.3206 36.461 6.3206 35.0151C6.3206 34.0824 6.40633 33.5223 6.85243 32.7595C7.23948 32.0977 7.68061 31.835 7.91315 31.4911C7.12986 31.6718 6.90104 31.8312 5.94595 31.8312C4.88314 31.8312 4.02787 31.3408 3.28373 30.6953C2.98216 30.4338 2.67693 29.932 2.50063 29.5849C2.00991 28.6183 1.97311 27.3202 2.39911 26.3107C2.5666 25.9138 2.77415 25.6066 3.02372 25.2907C3.39041 24.8264 4.4174 24.0616 5.04045 24.0104C4.85619 24.2827 4.68544 24.6788 4.56786 25.0263C4.22616 26.0356 4.33858 27.2576 4.76967 28.1734C5.24891 29.1916 6.09256 29.9792 7.13665 30.4051C7.83505 30.69 8.38822 30.6906 9.09987 30.7492C9.06764 30.6297 8.97173 30.5758 8.88906 30.4941C8.61678 30.2253 8.34672 29.9593 8.10498 29.6629C6.59666 27.8141 5.62598 25.915 5.11039 23.5082C4.86239 22.3504 4.72811 21.0433 4.72811 19.7135C4.72811 19.3648 4.72387 19.0544 4.76393 18.6979C4.79538 18.418 4.89208 18.0382 4.89208 17.739C5.2251 16.4644 5.30379 15.0098 6.12257 13.3349C6.52756 12.5064 6.9244 11.8013 7.45068 11.0329C9.54199 7.96839 17.5015 2.46132 24.0671 12.3155L24.0668 12.3155ZM16.3752 33.1912C16.5407 33.4149 18.1779 33.6729 18.8855 35.7758C19.0541 36.2771 19.0607 36.6524 19.0607 37.3025C19.7166 36.959 20.0002 36.8279 20.5523 36.2753C21.5688 35.2581 22.0406 33.5647 21.6084 32.0602C21.4829 31.6233 21.2404 31.1962 21.2153 31.0892C21.0814 31.1002 20.8967 31.3033 20.7155 31.4291C20.2354 31.7624 19.6175 32.1783 19.0738 32.4005C18.8569 32.4893 18.6855 32.5833 18.4638 32.6623C17.9608 32.8412 16.8797 33.1801 16.3752 33.1912ZM8.56869 33.253C8.56869 33.9456 8.79517 34.8523 9.12447 35.3922C9.23683 35.5765 9.36373 35.7887 9.49795 35.9498C9.72514 36.2225 9.90013 36.4178 10.1703 36.6444C10.4044 36.8408 10.7301 37.044 11.0042 37.1789C11.9494 37.6443 11.1039 37.4481 11.7182 35.5982C12.0365 34.6402 12.7737 33.907 13.6585 33.4694C13.7509 33.4237 13.8277 33.3856 13.9289 33.3352C13.9895 33.3051 14.0124 33.2944 14.0785 33.2668L14.2206 33.1911C13.7127 33.074 13.2351 32.9978 12.7567 32.8475C12.3123 32.7077 11.8682 32.5213 11.4728 32.3256C10.9111 32.0476 10.0283 31.5083 9.54479 31.0812C9.47126 31.0163 9.36034 30.9214 9.28694 30.8727C8.87594 31.6416 8.56869 32.2683 8.56869 33.253ZM15.4696 32.1711C16.2976 32.1711 17.1886 32.0213 17.8237 31.8121C18.1647 31.6999 18.4905 31.593 18.8006 31.45C18.9649 31.3741 19.0948 31.3035 19.2586 31.2232L20.0974 30.7244C20.5835 30.4041 21.1617 29.9198 21.5822 29.5049L21.9099 29.1493C21.9879 29.0738 22.0024 29.0574 22.0716 28.9693L22.5358 28.4087C22.7264 28.156 22.9277 27.8902 23.0874 27.6255C23.1754 27.4796 23.2612 27.3587 23.3483 27.2038C24.1777 25.7282 24.6574 24.4408 24.9756 22.7559C25.413 20.441 25.2398 17.5763 24.4356 15.3818C23.8676 13.8315 23.0595 12.2934 21.9723 11.1433C21.4642 10.6058 21.1935 10.3082 20.5912 9.85214C19.7495 9.21475 18.9878 8.79265 17.9717 8.45742C15.6502 7.69168 13.234 8.04894 11.1856 9.32088C11.0521 9.40375 10.921 9.48914 10.7945 9.58286C10.6511 9.68944 10.5412 9.76113 10.4012 9.87359L9.66916 10.509C9.29881 10.8319 9.00533 11.199 8.6755 11.5656C7.73594 12.7419 7.05939 13.9817 6.54296 15.5133C6.31394 16.1924 6.13791 16.8997 6.00813 17.6732C5.9113 18.2505 5.8197 18.9482 5.82081 19.528L5.79014 20.1744C5.82296 20.5734 5.81069 21.0595 5.86054 21.4361C5.91326 21.834 5.95358 22.2329 6.02151 22.6369C6.37208 24.7232 7.21351 26.7312 8.43461 28.3471C8.62148 28.5944 8.84117 28.8373 9.04174 29.0753C9.54134 29.6932 10.5506 30.5233 11.2524 30.9363C12.4949 31.6678 13.8989 32.1711 15.4696 32.1711Z" fill="url(#paint6_linear_1_457)"/>
<path fill-rule="evenodd" clip-rule="evenodd" d="M25.7743 13.3788C26.0844 13.3788 26.3994 13.4594 26.627 13.5549C27.338 13.8533 27.9601 14.6156 27.9601 15.3881C27.9601 15.8566 27.9685 16.1047 27.7529 16.5431C27.6427 16.7669 27.4951 16.946 27.3278 17.1115C26.9829 17.453 26.5017 17.7375 25.9617 17.7375C26.1884 17.4023 26.4339 17.2789 26.6046 16.5193C26.8441 15.4531 26.4213 14.5522 25.6569 13.9279C25.5316 13.8255 25.1453 13.5794 24.9625 13.5644C25.0643 13.4267 25.5917 13.3788 25.7743 13.3788Z" fill="url(#paint7_linear_1_457)"/>
<path fill-rule="evenodd" clip-rule="evenodd" d="M4.79029 17.8612C4.59605 17.8452 4.05782 17.6467 3.90547 17.5624C3.65303 17.4227 3.41709 17.2286 3.23773 17.0179C3.0765 16.8286 2.89916 16.5057 2.8285 16.2483C2.73748 15.9163 2.71745 15.5416 2.78811 15.199C2.92383 14.5417 3.27694 14.0975 3.76552 13.7864C4.14291 13.5461 4.70181 13.3818 5.21048 13.4575C5.32343 13.4742 5.38828 13.4781 5.47826 13.5014C5.57639 13.5269 5.61671 13.5552 5.72711 13.5644V13.6262C5.5129 13.6756 5.35377 13.7891 5.1896 13.8979C4.99471 14.0271 4.89593 14.1216 4.73496 14.2825C4.4786 14.5385 4.24756 14.9767 4.14069 15.3634C3.94201 16.0825 4.06565 16.7564 4.43665 17.3766C4.54992 17.566 4.67304 17.6878 4.79029 17.8612Z" fill="url(#paint8_linear_1_457)"/>
<path fill-rule="evenodd" clip-rule="evenodd" d="M2.91671 21.0142C2.91671 21.8011 3.2515 22.6602 3.69035 23.1541C3.789 23.2652 3.85784 23.3659 3.97078 23.4638C4.03786 23.5219 4.05887 23.5253 4.12659 23.5877C4.25154 23.7028 4.50594 23.9088 4.66541 23.9509C4.62182 24.0098 4.66971 24.0201 4.35098 24.0415C4.2261 24.0499 4.04105 24.0759 3.95676 24.067C3.15337 23.9827 2.74107 23.8852 2.08631 23.3818C1.20365 22.703 0.796568 21.4426 1.07328 20.3639C1.3282 19.3705 2.05127 18.588 3.0292 18.2506C3.52377 18.0799 3.90071 18.1083 4.54046 18.1083C4.50738 18.1987 4.36703 18.2611 4.23784 18.3652C3.45566 18.9957 2.91671 19.9299 2.91671 21.0142Z" fill="url(#paint9_linear_1_457)"/>
<path fill-rule="evenodd" clip-rule="evenodd" d="M25.9304 18.2321L26.6486 18.2013C28.0906 18.2013 29.4589 19.5888 29.4589 21.0142V21.2924C29.4589 22.23 28.8954 23.064 28.362 23.4832C28.201 23.6098 28.0666 23.701 27.8767 23.8064C27.7796 23.8604 27.7013 23.8838 27.5962 23.9307C27.1507 24.129 26.1776 24.2512 25.8055 24.0745C25.8588 24.0026 26.0398 23.9172 26.1361 23.8453C26.9038 23.2718 27.523 22.3071 27.523 21.3233C27.523 20.4961 27.4368 20.0019 26.9983 19.308C26.7592 18.9295 26.4437 18.6248 26.0867 18.3556L25.9304 18.2321Z" fill="url(#paint10_linear_1_457)"/>
<path d="M11.1956 6.11552L15.4627 0.028862L19.8281 6.11552H19.0997L15.4627 0.993343L11.8749 6.11552H11.1956Z" fill="url(#paint11_linear_1_457)"/>
<path d="M15.5708 4.78823C16.2476 4.78823 16.586 5.1232 16.586 5.79321C16.586 6.46315 16.2476 6.79812 15.5708 6.79812C14.894 6.79812 14.5557 6.46315 14.5557 5.79321C14.5557 5.1232 14.894 4.78823 15.5708 4.78823Z" fill="url(#paint12_linear_1_457)"/>
</g>
<defs>
<linearGradient id="paint0_linear_1_457" x1="-9.61493" y1="24.6907" x2="110.78" y2="24.9489" gradientUnits="userSpaceOnUse">
<stop stop-color="#9900CC"/>
<stop offset="1" stop-color="#9900CC" stop-opacity="0"/>
</linearGradient>
<linearGradient id="paint1_linear_1_457" x1="-9.61493" y1="24.6907" x2="110.78" y2="24.9489" gradientUnits="userSpaceOnUse">
<stop stop-color="#9900CC"/>
<stop offset="1" stop-color="#9900CC" stop-opacity="0"/>
</linearGradient>
<linearGradient id="paint2_linear_1_457" x1="-9.61493" y1="24.6907" x2="110.78" y2="24.9489" gradientUnits="userSpaceOnUse">
<stop stop-color="#9900CC"/>
<stop offset="1" stop-color="#9900CC" stop-opacity="0"/>
</linearGradient>
<linearGradient id="paint3_linear_1_457" x1="-9.61493" y1="24.6907" x2="110.78" y2="24.9489" gradientUnits="userSpaceOnUse">
<stop stop-color="#9900CC"/>
<stop offset="1" stop-color="#9900CC" stop-opacity="0"/>
</linearGradient>
<linearGradient id="paint4_linear_1_457" x1="-9.61493" y1="24.6907" x2="110.78" y2="24.9489" gradientUnits="userSpaceOnUse">
<stop stop-color="#9900CC"/>
<stop offset="1" stop-color="#9900CC" stop-opacity="0"/>
</linearGradient>
<linearGradient id="paint5_linear_1_457" x1="-9.61493" y1="24.6907" x2="110.78" y2="24.9489" gradientUnits="userSpaceOnUse">
<stop stop-color="#9900CC"/>
<stop offset="1" stop-color="#9900CC" stop-opacity="0"/>
</linearGradient>
<linearGradient id="paint6_linear_1_457" x1="-9.61493" y1="24.6907" x2="110.78" y2="24.9489" gradientUnits="userSpaceOnUse">
<stop stop-color="#9900CC"/>
<stop offset="1" stop-color="#9900CC" stop-opacity="0"/>
</linearGradient>
<linearGradient id="paint7_linear_1_457" x1="-9.61493" y1="24.6907" x2="110.78" y2="24.9489" gradientUnits="userSpaceOnUse">
<stop stop-color="#9900CC"/>
<stop offset="1" stop-color="#9900CC" stop-opacity="0"/>
</linearGradient>
<linearGradient id="paint8_linear_1_457" x1="-9.61493" y1="24.6907" x2="110.78" y2="24.9489" gradientUnits="userSpaceOnUse">
<stop stop-color="#9900CC"/>
<stop offset="1" stop-color="#9900CC" stop-opacity="0"/>
</linearGradient>
<linearGradient id="paint9_linear_1_457" x1="-9.61493" y1="24.6907" x2="110.78" y2="24.9489" gradientUnits="userSpaceOnUse">
<stop stop-color="#9900CC"/>
<stop offset="1" stop-color="#9900CC" stop-opacity="0"/>
</linearGradient>
<linearGradient id="paint10_linear_1_457" x1="-9.61493" y1="24.6907" x2="110.78" y2="24.9489" gradientUnits="userSpaceOnUse">
<stop stop-color="#9900CC"/>
<stop offset="1" stop-color="#9900CC" stop-opacity="0"/>
</linearGradient>
<linearGradient id="paint11_linear_1_457" x1="-9.61493" y1="24.6907" x2="110.78" y2="24.9489" gradientUnits="userSpaceOnUse">
<stop stop-color="#9900CC"/>
<stop offset="1" stop-color="#9900CC" stop-opacity="0"/>
</linearGradient>
<linearGradient id="paint12_linear_1_457" x1="-9.61493" y1="24.6907" x2="110.78" y2="24.9489" gradientUnits="userSpaceOnUse">
<stop stop-color="#9900CC"/>
<stop offset="1" stop-color="#9900CC" stop-opacity="0"/>
</linearGradient>
<clipPath id="clip0_1_457">
<rect width="85" height="53.5186" fill="white" transform="translate(0.977753)"/>
</clipPath>
</defs>
</svg>
