<svg width="33" height="32" viewBox="0 0 33 32" fill="none" xmlns="http://www.w3.org/2000/svg">
<path fill-rule="evenodd" clip-rule="evenodd" d="M13.1261 21.7C14.1261 22.3 15.3261 22.6 16.5261 22.6C20.2261 22.6 23.1261 19.6 23.1261 16.1C23.1261 14.3 22.5261 12.7 21.2261 11.4C19.9261 10.2 18.3261 9.5 16.5261 9.5C12.9261 9.5 9.92606 12.5 9.92606 16.1C9.92606 17.3 10.2261 18.5 10.9261 19.6L11.1261 19.9L10.4261 22.3L12.9261 21.6L13.1261 21.7ZM18.7261 17C18.9261 17 19.9261 17.5 20.1261 17.6C20.1572 17.6156 20.1884 17.6287 20.2191 17.6417C20.3859 17.7121 20.5416 17.7779 20.6261 18.2C20.7261 18.2 20.7261 18.6 20.5261 19.1C20.4261 19.5 19.6261 20 19.2261 20C19.1583 20 19.0934 20.0057 19.0241 20.0119C18.6842 20.0419 18.238 20.0814 16.826 19.5C15.0736 18.799 13.8586 17.0999 13.5174 16.6228C13.4692 16.5554 13.4384 16.5124 13.4261 16.5C13.409 16.466 13.3746 16.4116 13.3292 16.3399C13.108 15.9906 12.6261 15.2297 12.6261 14.4C12.6261 13.4 13.1261 12.9 13.326 12.7C13.526 12.5 13.7261 12.5 13.826 12.5H14.2261C14.3261 12.5 14.5261 12.5 14.6261 12.8C14.8261 13.2 15.2261 14.2 15.2261 14.3C15.2261 14.3333 15.2372 14.3667 15.2483 14.4C15.2705 14.4667 15.2927 14.5333 15.2261 14.6C15.1761 14.65 15.1511 14.7 15.1261 14.75C15.1011 14.8 15.0761 14.85 15.0261 14.9L14.7261 15.2C14.6261 15.3 14.5261 15.4 14.6261 15.6C14.7261 15.8 15.1261 16.5 15.7261 17C16.4012 17.5907 16.9338 17.8254 17.2039 17.9443C17.2539 17.9663 17.2948 17.9844 17.326 18C17.526 18 17.6261 18 17.7261 17.9C17.7761 17.8 17.9011 17.65 18.0261 17.5C18.1511 17.35 18.276 17.2 18.326 17.1C18.426 16.9 18.5261 16.9 18.7261 17Z" fill="#34A853"/>
<path fill-rule="evenodd" clip-rule="evenodd" d="M0.526062 16C0.526062 7.16344 7.68951 0 16.5261 0C25.3626 0 32.5261 7.16344 32.5261 16C32.5261 24.8366 25.3626 32 16.5261 32C7.68951 32 0.526062 24.8366 0.526062 16ZM16.5261 8C18.6261 8 20.6261 8.8 22.1261 10.3C23.6261 11.8 24.5261 13.8 24.5261 15.9C24.5261 20.3 20.9261 23.9 16.5261 23.9C15.2261 23.9 13.9261 23.5 12.7261 22.9L8.52606 24L9.62607 20C8.92607 18.8 8.52606 17.4 8.52606 16C8.52606 11.6 12.1261 8 16.5261 8Z" fill="#34A853"/>
</svg>
